<svg width="19" height="19" viewBox="0 0 19 19" fill="none" xmlns="http://www.w3.org/2000/svg">
<path d="M18.2496 9.77765C18.2496 14.661 14.2909 18.6198 9.40753 18.6198C4.52417 18.6198 0.56543 14.661 0.56543 9.77765C0.56543 4.89429 4.52417 0.935547 9.40753 0.935547C14.2909 0.935547 18.2496 4.89429 18.2496 9.77765Z" fill="white"/>
<path fill-rule="evenodd" clip-rule="evenodd" d="M11.3287 6.65L14.1422 9.46354C14.3149 9.63619 14.3149 9.91612 14.1422 10.0888L11.3287 12.9023C11.156 13.075 10.8761 13.075 10.7035 12.9023C10.5308 12.7297 10.5308 12.4497 10.7035 12.2771L12.7623 10.2183H4.98752C4.74335 10.2183 4.54541 10.0203 4.54541 9.77615C4.54541 9.53199 4.74335 9.33405 4.98752 9.33405H12.7623L10.7035 7.27523C10.5308 7.10258 10.5308 6.82265 10.7035 6.65C10.8761 6.47734 11.156 6.47734 11.3287 6.65Z" fill="#0580B0"/>
</svg>
