<svg width="62" height="63" viewBox="0 0 62 63" fill="none" xmlns="http://www.w3.org/2000/svg">
<rect y="0.322266" width="62" height="62" rx="6" fill="#83CECE"/>
<path d="M20.7452 39.1948C24.4009 39.1948 27.3645 36.2299 27.3645 32.5725C27.3645 28.9151 24.4009 25.9502 20.7452 25.9502C17.0895 25.9502 14.126 28.9151 14.126 32.5725C14.126 36.2299 17.0895 39.1948 20.7452 39.1948Z" fill="white"/>
<path d="M41.255 23.5669C44.9107 23.5669 47.8742 20.602 47.8742 16.9446C47.8742 13.2872 44.9107 10.3223 41.255 10.3223C37.5993 10.3223 34.6357 13.2872 34.6357 16.9446C34.6357 20.602 37.5993 23.5669 41.255 23.5669Z" fill="white"/>
<path fill-rule="evenodd" clip-rule="evenodd" d="M49.0709 41.0877C49.0709 40.279 49.7289 39.6245 50.5353 39.6245C51.3437 39.6245 51.9998 40.2828 51.9998 41.0915L51.9939 46.9559C51.99 49.9194 49.5883 52.3221 46.6243 52.3221H35.8812C35.0728 52.3221 34.4167 51.6657 34.4167 50.857C34.4167 50.0482 35.0728 49.3919 35.8812 49.3919H46.6243C47.9716 49.3919 49.0631 48.2998 49.065 46.9519L49.0709 41.0877Z" fill="white"/>
<path fill-rule="evenodd" clip-rule="evenodd" d="M12.9386 21.5568C12.9386 22.3656 12.2807 23.02 11.4723 23.02C10.6639 23.02 10.0098 22.3617 10.0098 21.553L10.0157 15.6886C10.0176 12.7251 12.4212 10.3223 15.3852 10.3223H30.0236C30.832 10.3223 31.4881 10.9786 31.4881 11.7874C31.4881 12.5961 30.832 13.2525 30.0236 13.2525H15.3852C14.0379 13.2525 12.9464 14.3445 12.9445 15.6924L12.9386 21.5568Z" fill="white"/>
<path fill-rule="evenodd" clip-rule="evenodd" d="M27.0871 38.3394C29.7543 40.2968 31.4882 43.4556 31.4882 47.0148C31.4882 48.5366 30.5294 49.863 28.7663 50.7753C26.8196 51.7833 23.7853 52.3224 20.7451 52.3224C17.703 52.3224 14.6687 51.7833 12.7219 50.7753C10.9588 49.863 10 48.5366 10 47.0148C10 43.4556 11.7339 40.2968 14.4011 38.3394C15.971 40.0662 18.2321 41.1485 20.7451 41.1485C23.2561 41.1485 25.5191 40.0663 27.0871 38.3394Z" fill="white"/>
<path fill-rule="evenodd" clip-rule="evenodd" d="M47.5988 22.7114C50.266 24.6688 51.9999 27.8276 51.9999 31.3868C51.9999 32.9086 51.0411 34.235 49.278 35.1473C47.3313 36.1553 44.2969 36.6944 41.2548 36.6944C38.2147 36.6944 35.1803 36.1553 33.2336 35.1473C31.4705 34.235 30.5117 32.9086 30.5117 31.3868C30.5117 27.8276 32.2456 24.6687 34.9128 22.7114C36.4808 24.4383 38.7438 25.5205 41.2548 25.5205C43.7678 25.5205 46.0289 24.4383 47.5988 22.7114Z" fill="white"/>
</svg>
