<svg width="62" height="63" viewBox="0 0 62 63" fill="none" xmlns="http://www.w3.org/2000/svg">
<rect y="0.322266" width="62" height="62" rx="6" fill="#FD9770"/>
<path d="M48.3086 10.3223H32.2305V16.7117C32.6294 16.6096 33.0427 16.5566 33.4609 16.5566C36.1742 16.5566 38.3828 18.764 38.3828 21.4785C38.3828 24.193 36.1742 26.4004 33.4609 26.4004C33.0427 26.4004 32.6294 26.3475 32.2305 26.2454V30.0918H38.0872C39.1391 30.0918 39.6903 31.3698 39.0076 32.1406C38.5991 32.5984 38.3828 33.1667 38.3828 33.7832C38.3828 35.1398 39.4859 36.2441 40.8438 36.2441C42.2016 36.2441 43.3047 35.1398 43.3047 33.7832C43.3047 33.1667 43.0884 32.5984 42.6799 32.1406C41.9763 31.3479 42.5405 30.0918 43.6003 30.0918H52V14.0137C52 11.9781 50.3441 10.3223 48.3086 10.3223Z" fill="white"/>
<path d="M33.4609 19.0176C32.8529 19.0176 32.2689 19.2387 31.8171 19.6413C31.0332 20.3442 29.7695 19.7879 29.7695 18.7219V10.3223H13.6914C11.6559 10.3223 10 11.9781 10 14.0137V30.0918H16.3906C16.2873 29.6929 16.2344 29.2795 16.2344 28.8613C16.2344 26.1468 18.443 23.9395 21.1562 23.9395C23.8695 23.9395 26.0781 26.1468 26.0781 28.8613C26.0781 29.2795 26.0252 29.6929 25.9219 30.0918H29.7695V24.2351C29.7695 23.1691 31.0332 22.6129 31.8171 23.3159C32.2689 23.7184 32.8529 23.9395 33.4609 23.9395C34.8188 23.9395 35.9219 22.8351 35.9219 21.4785C35.9219 20.1219 34.8188 19.0176 33.4609 19.0176Z" fill="white"/>
<path d="M28.5391 36.2441C28.9573 36.2441 29.3706 36.2971 29.7695 36.4003V32.5527H23.9128C22.853 32.5527 22.2889 31.2966 22.9924 30.5039C23.4009 30.0461 23.6172 29.4777 23.6172 28.8613C23.6172 27.5047 22.5141 26.4004 21.1562 26.4004C19.7984 26.4004 18.6953 27.5047 18.6953 28.8613C18.6953 29.4778 18.9116 30.0461 19.3201 30.5039C20.0237 31.2965 19.4595 32.5527 18.3997 32.5527H10V48.6309C10 50.6664 11.6559 52.3223 13.6914 52.3223H29.7695V45.9317C29.3706 46.0351 28.9573 46.0879 28.5391 46.0879C25.8258 46.0879 23.6172 43.8805 23.6172 41.166C23.6172 38.4515 25.8258 36.2441 28.5391 36.2441Z" fill="white"/>
<path d="M45.6094 32.5527C45.7127 32.9517 45.7656 33.365 45.7656 33.7832C45.7656 36.4977 43.557 38.7051 40.8438 38.7051C38.1305 38.7051 35.9219 36.4977 35.9219 33.7832C35.9219 33.3625 35.9937 32.9532 36.0968 32.5527H32.2305V38.4094C32.2305 39.4687 30.9752 40.033 30.1829 39.3299C29.7215 38.9214 29.1543 38.7051 28.5391 38.7051C27.1812 38.7051 26.0781 39.8094 26.0781 41.166C26.0781 42.5226 27.1812 43.627 28.5391 43.627C29.1543 43.627 29.7215 43.4106 30.1829 43.0021C30.9769 42.3002 32.2305 42.8629 32.2305 43.9226V52.3223H48.3086C50.3441 52.3223 52 50.6664 52 48.6309V32.5527H45.6094Z" fill="white"/>
</svg>
