<svg width="62" height="63" viewBox="0 0 62 63" fill="none" xmlns="http://www.w3.org/2000/svg">
<rect y="0.322266" width="62" height="62" rx="6" fill="#1A75CF"/>
<path d="M43.6001 10.3223H18.4001C16.7292 10.3223 15.1268 10.986 13.9453 12.1675C12.7638 13.349 12.1001 14.9514 12.1001 16.6223V46.0223C12.1001 47.6931 12.7638 49.2956 13.9453 50.477C15.1268 51.6585 16.7292 52.3223 18.4001 52.3223H43.6001C45.271 52.3223 46.8734 51.6585 48.0549 50.477C49.2363 49.2956 49.9001 47.6931 49.9001 46.0223V16.6223C49.9001 14.9514 49.2363 13.349 48.0549 12.1675C46.8734 10.986 45.271 10.3223 43.6001 10.3223ZM22.6001 18.7223H33.1001C33.6571 18.7223 34.1912 18.9435 34.585 19.3373C34.9788 19.7312 35.2001 20.2653 35.2001 20.8223C35.2001 21.3792 34.9788 21.9134 34.585 22.3072C34.1912 22.701 33.6571 22.9223 33.1001 22.9223H22.6001C22.0431 22.9223 21.509 22.701 21.1152 22.3072C20.7213 21.9134 20.5001 21.3792 20.5001 20.8223C20.5001 20.2653 20.7213 19.7312 21.1152 19.3373C21.509 18.9435 22.0431 18.7223 22.6001 18.7223ZM40.4501 43.9223H34.1501C33.7623 43.9211 33.3824 43.8126 33.0525 43.6087C32.7226 43.4048 32.4556 43.1136 32.2811 42.7673L31.4831 41.1713L29.3831 43.2713C29.1869 43.4659 28.9542 43.6199 28.6983 43.7244C28.4424 43.8289 28.1685 43.8819 27.8921 43.8803H27.5561C27.2292 43.8256 26.9199 43.6944 26.6535 43.4973C26.387 43.3002 26.171 43.0428 26.0231 42.7463L25.2251 41.1503L23.1251 43.2503C22.9293 43.4461 22.6968 43.6014 22.441 43.7073C22.1852 43.8133 21.911 43.8679 21.6341 43.8679C21.3572 43.8679 21.083 43.8133 20.8272 43.7073C20.5713 43.6014 20.3389 43.4461 20.1431 43.2503C19.9473 43.0545 19.792 42.822 19.686 42.5662C19.58 42.3104 19.5255 42.0362 19.5255 41.7593C19.5255 41.4824 19.58 41.2082 19.686 40.9523C19.792 40.6965 19.9473 40.4641 20.1431 40.2683L24.3431 36.0683C24.5738 35.8519 24.8503 35.6904 25.1521 35.5958C25.4539 35.5013 25.7732 35.4761 26.0861 35.5223C26.413 35.5769 26.7223 35.7081 26.9887 35.9052C27.2552 36.1023 27.4712 36.3597 27.6191 36.6563L28.4171 38.2523L30.5171 36.1523C30.753 35.9161 31.0418 35.7396 31.3595 35.6373C31.6772 35.5351 32.0148 35.51 32.3441 35.5643C32.671 35.6189 32.9803 35.7501 33.2467 35.9472C33.5132 36.1443 33.7292 36.4017 33.8771 36.6983L35.4521 39.7223H40.4501C41.0071 39.7223 41.5412 39.9435 41.935 40.3373C42.3288 40.7312 42.5501 41.2653 42.5501 41.8223C42.5501 42.3792 42.3288 42.9134 41.935 43.3072C41.5412 43.701 41.0071 43.9223 40.4501 43.9223ZM39.4001 31.3223H22.6001C22.0431 31.3223 21.509 31.101 21.1152 30.7072C20.7213 30.3134 20.5001 29.7792 20.5001 29.2223C20.5001 28.6653 20.7213 28.1312 21.1152 27.7373C21.509 27.3435 22.0431 27.1223 22.6001 27.1223H39.4001C39.9571 27.1223 40.4912 27.3435 40.885 27.7373C41.2788 28.1312 41.5001 28.6653 41.5001 29.2223C41.5001 29.7792 41.2788 30.3134 40.885 30.7072C40.4912 31.101 39.9571 31.3223 39.4001 31.3223Z" fill="white"/>
</svg>
