<svg width="62" height="63" viewBox="0 0 62 63" fill="none" xmlns="http://www.w3.org/2000/svg">
<rect y="0.322266" width="62" height="62" rx="6" fill="#986EEB"/>
<path d="M31.4378 13.8222H29.5128C28.9353 11.8097 27.0803 10.3223 24.8754 10.3223C22.6704 10.3223 20.8154 11.8097 20.2379 13.8222H18.313C17.5955 13.8222 17.0005 14.4172 17.0005 15.1347V17.7597C17.0005 19.4396 18.383 20.8221 20.0629 20.8221H29.6878C31.3678 20.8221 32.7503 19.4396 32.7503 17.7597V15.1347C32.7503 14.4172 32.1553 13.8222 31.4378 13.8222Z" fill="white"/>
<path d="M34.9381 15.5723H34.5006V17.7597C34.5006 20.4197 32.3482 22.5722 29.6882 22.5722H20.0633C17.4034 22.5722 15.2509 20.4197 15.2509 17.7597V15.5723H14.8134C12.1534 15.5723 10.001 17.7247 10.001 20.3847V42.2594C10.001 44.9194 12.1534 47.0718 14.8134 47.0718H27.7282L28.1132 44.9194C28.2882 43.9394 28.7432 43.0644 29.4432 42.3469L30.8432 40.9469H16.5634C15.8459 40.9469 15.2509 40.3519 15.2509 39.6344C15.2509 38.9169 15.8459 38.322 16.5634 38.322H33.1882C33.2757 38.322 33.3457 38.322 33.4332 38.357H33.4507L39.7506 32.057V20.3847C39.7506 17.7247 37.5981 15.5723 34.9381 15.5723ZM33.1882 35.2595H16.5634C15.8459 35.2595 15.2509 34.6645 15.2509 33.947C15.2509 33.2295 15.8459 32.6345 16.5634 32.6345H33.1882C33.9057 32.6345 34.5006 33.2295 34.5006 33.947C34.5006 34.6645 33.9057 35.2595 33.1882 35.2595ZM33.1882 29.5721H16.5634C15.8459 29.5721 15.2509 28.9771 15.2509 28.2596C15.2509 27.5421 15.8459 26.9471 16.5634 26.9471H33.1882C33.9057 26.9471 34.5006 27.5421 34.5006 28.2596C34.5006 28.9771 33.9057 29.5721 33.1882 29.5721Z" fill="white"/>
<path d="M31.9231 52.322C31.5784 52.322 31.2424 52.1855 30.9956 51.937C30.6929 51.6342 30.5564 51.2037 30.6316 50.7802L31.5591 45.5215C31.6046 45.2573 31.7341 45.0123 31.9231 44.8216L44.9167 31.8297C46.5127 30.2303 48.0807 30.6625 48.9381 31.52L51.1029 33.6847C52.2981 34.8782 52.2981 36.8207 51.1029 38.0159L38.1093 51.0095C37.9203 51.2002 37.6753 51.328 37.4093 51.3735L32.1506 52.301C32.0754 52.315 31.9984 52.322 31.9231 52.322Z" fill="white"/>
</svg>
