<svg width="62" height="63" viewBox="0 0 62 63" fill="none" xmlns="http://www.w3.org/2000/svg">
<rect y="0.322266" width="62" height="62" rx="6" fill="#FD6FAF"/>
<path d="M34.6291 13.0194C34.6291 12.5433 34.5365 12.077 34.368 11.6419L40.1773 17.4512C39.739 17.2802 39.271 17.1858 38.7955 17.1858H35.8291C35.1696 17.1858 34.6291 16.6453 34.6291 15.9858V13.0194ZM19.2433 17.3291L17.313 19.2595L16.8772 18.5046C16.7128 18.2186 16.3478 18.12 16.0617 18.2844C15.7758 18.4487 15.6771 18.8138 15.8415 19.0998L16.6684 20.5321C16.8637 20.872 17.3325 20.9362 17.6104 20.6586L20.0915 18.1774C20.3257 17.9432 20.3257 17.5634 20.0915 17.3292C19.8573 17.095 19.4775 17.0949 19.2433 17.3291ZM19.2433 28.6252L17.313 30.5555L16.8772 29.8006C16.7128 29.5146 16.3478 29.416 16.0617 29.5804C15.7758 29.7447 15.6771 30.1098 15.8415 30.3958L16.6684 31.8281C16.8637 32.1679 17.3325 32.2322 17.6104 31.9546L20.0915 29.4734C20.3257 29.2392 20.3257 28.8594 20.0915 28.6252C19.8573 28.391 19.4775 28.391 19.2433 28.6252ZM41.5539 43.5931V48.6709C41.5539 49.5447 40.8412 50.2574 39.9674 50.2574H11.8624C10.9886 50.2574 10.2759 49.5448 10.2759 48.671V11.9088C10.2759 11.035 10.9886 10.3223 11.8624 10.3223H30.8555C32.2664 10.3223 33.4294 11.6426 33.4294 13.0194V15.9858C33.4294 17.3075 34.5073 18.3855 35.8291 18.3855H38.7955C40.1769 18.3855 41.5539 19.5968 41.554 21.0208V22.5769C39.1118 22.1591 36.5983 22.6029 34.4326 23.8533C32.6523 24.8811 31.2291 26.3815 30.301 28.1727C30.2725 28.1685 30.2436 28.1656 30.2139 28.1656H23.9661C23.6348 28.1656 23.3663 28.4342 23.3663 28.7655C23.3663 29.0968 23.6348 29.3653 23.9661 29.3653H29.7731C29.6566 29.6789 29.5539 29.999 29.4664 30.3254C29.3874 30.6202 29.3222 30.9169 29.269 31.2147H23.9661C23.6348 31.2147 23.3663 31.4833 23.3663 31.8145C23.3663 32.1458 23.6348 32.4144 23.9661 32.4144H29.1235C28.9914 34.4938 29.4718 36.5785 30.5313 38.4135C31.9488 40.8687 34.2645 42.6458 37.0033 43.3797C38.4947 43.7793 40.0435 43.8516 41.554 43.5932L41.5539 43.5931ZM23.3662 17.4693C23.3662 17.8006 23.6348 18.0692 23.9661 18.0692H30.2139C30.5451 18.0692 30.8137 17.8006 30.8137 17.4693C30.8137 17.138 30.5451 16.8695 30.2139 16.8695H23.9661C23.6348 16.8695 23.3662 17.138 23.3662 17.4693ZM23.3662 20.5183C23.3662 20.8496 23.6348 21.1182 23.9661 21.1182H33.4128C33.7441 21.1182 34.0126 20.8496 34.0126 20.5183C34.0126 20.187 33.7441 19.9184 33.4128 19.9184H23.9661C23.6348 19.9184 23.3662 20.187 23.3662 20.5183ZM23.3662 40.0615C23.3662 40.3928 23.6348 40.6613 23.9661 40.6613H30.2139C30.5451 40.6613 30.8137 40.3928 30.8137 40.0615C30.8137 39.7302 30.5451 39.4616 30.2139 39.4616H23.9661C23.6348 39.4616 23.3662 39.7302 23.3662 40.0615ZM22.0252 41.586C22.0252 39.3763 20.223 37.5742 18.0133 37.5742C15.8036 37.5742 14.0015 39.3764 14.0015 41.586C14.0015 43.7956 15.8037 45.5979 18.0133 45.5979C20.2229 45.5979 22.0252 43.7957 22.0252 41.586ZM22.0252 30.2899C22.0252 28.0803 20.223 26.2781 18.0133 26.2781C15.8036 26.2781 14.0015 28.0803 14.0015 30.2899C14.0015 32.4995 15.8037 34.3017 18.0133 34.3017C20.2229 34.3017 22.0252 32.4995 22.0252 30.2899ZM22.0252 18.9938C22.0252 16.7841 20.223 14.982 18.0133 14.982C15.8036 14.982 14.0015 16.7842 14.0015 18.9938C14.0015 21.2034 15.8037 23.0056 18.0133 23.0056C20.2229 23.0056 22.0252 21.2034 22.0252 18.9938ZM34.0126 43.1105C34.0126 42.7792 33.744 42.5107 33.4127 42.5107H23.966C23.6347 42.5107 23.3661 42.7792 23.3661 43.1105C23.3661 43.4418 23.6347 43.7104 23.966 43.7104H33.4127C33.744 43.7104 34.0126 43.4418 34.0126 43.1105ZM19.2432 39.9214L17.3129 41.8517L16.8771 41.0968C16.7127 40.8109 16.3477 40.7122 16.0616 40.8766C15.7757 41.041 15.677 41.406 15.8414 41.6921L16.6683 43.1243C16.8636 43.4642 17.3325 43.5285 17.6103 43.2508L20.0914 40.7697C20.3256 40.5355 20.3256 40.1557 20.0914 39.9215C19.8572 39.6873 19.4774 39.6873 19.2432 39.9215V39.9214ZM50.714 52.0529C49.7507 52.609 48.5076 52.2759 47.9515 51.3127L44.0584 44.5696C43.8015 44.1247 43.937 43.5579 44.3561 43.2741L44.1641 42.9416C43.7883 42.2908 43.0435 41.988 42.3202 42.192C40.7374 42.6383 39.0175 42.6774 37.3137 42.2209C32.2676 40.8688 29.2729 35.682 30.6251 30.6358C31.9772 25.5898 37.164 22.5952 42.21 23.9472C47.2562 25.2994 50.2507 30.4861 48.8987 35.5323C48.4421 37.2361 47.5483 38.706 46.3704 39.8536C45.8321 40.378 45.7219 41.1746 46.0977 41.8253L46.2896 42.1578C46.745 41.9361 47.3042 42.1021 47.5612 42.5474L51.4543 49.2904C52.0104 50.2537 51.6773 51.4967 50.714 52.0529ZM47.2827 33.0975C47.2827 28.947 43.9174 25.5817 39.7669 25.5817C35.6165 25.5817 32.2511 28.9471 32.2511 33.0975C32.2511 37.248 35.6165 40.6134 39.7669 40.6134C43.9174 40.6134 47.2827 37.248 47.2827 33.0975ZM39.7941 33.9238C37.6052 33.9238 35.7262 35.2488 34.9141 37.1402C36.0727 38.5295 37.8165 39.4137 39.7668 39.4137C41.7374 39.4137 43.4971 38.5111 44.6554 37.097C43.8333 35.2286 41.9662 33.9239 39.794 33.9239L39.7941 33.9238ZM39.7941 33.3914C41.2642 33.3914 42.456 32.1996 42.456 30.7296C42.456 29.2595 41.2642 28.0677 39.7941 28.0677C38.3239 28.0677 37.1322 29.2594 37.1322 30.7296C37.1322 32.1997 38.3239 33.3914 39.7941 33.3914Z" fill="white"/>
</svg>
