<svg width="121" height="121" viewBox="0 0 121 121" fill="none" xmlns="http://www.w3.org/2000/svg">
<circle cx="60.2495" cy="60.1523" r="60" fill="#FD6FAF" fill-opacity="0.1"/>
<path d="M22.1775 87.6169C22.1796 88.5751 22.5615 89.4935 23.2393 90.1709C23.9172 90.8483 24.8359 91.2294 25.7942 91.2308H55.0623C56.0195 91.229 56.9368 90.8472 57.6124 90.1692C58.2881 89.4912 58.6669 88.5727 58.6654 87.6155V82.7207H22.1775V87.6169ZM38.2922 84.5195H42.5507C42.8763 84.5195 43.1886 84.6489 43.4189 84.8791C43.6491 85.1094 43.7785 85.4217 43.7785 85.7473C43.7785 86.0729 43.6491 86.3852 43.4189 86.6155C43.1886 86.8457 42.8763 86.9751 42.5507 86.9751H38.2922C37.9666 86.9751 37.6543 86.8457 37.4241 86.6155C37.1938 86.3852 37.0645 86.0729 37.0645 85.7473C37.0645 85.4217 37.1938 85.1094 37.4241 84.8791C37.6543 84.6489 37.9666 84.5195 38.2922 84.5195Z" fill="#FD6FAF"/>
<path d="M55.9502 77.833C32.6374 75.1762 32.6564 42.2778 55.991 39.6537C56.8802 39.571 57.7747 39.562 58.6654 39.6265V32.8445C58.6665 31.8875 58.2876 30.9693 57.612 30.2916C56.9363 29.614 56.0193 29.2323 55.0623 29.2305H25.7942C24.8359 29.2319 23.9172 29.613 23.2393 30.2904C22.5615 30.9678 22.1796 31.8862 22.1775 32.8445V80.2627H58.6654V77.8738C57.7605 77.9242 56.8532 77.9105 55.9502 77.833ZM36.1644 33.4862H44.6786C45.0042 33.4862 45.3165 33.6156 45.5467 33.8458C45.777 34.0761 45.9063 34.3884 45.9063 34.714C45.9063 35.0396 45.777 35.3519 45.5467 35.5822C45.3165 35.8124 45.0042 35.9418 44.6786 35.9418H36.1644C35.8387 35.9418 35.5264 35.8124 35.2962 35.5822C35.0659 35.3519 34.9366 35.0396 34.9366 34.714C34.9366 34.3884 35.0659 34.0761 35.2962 33.8458C35.5264 33.6156 35.8387 33.4862 36.1644 33.4862Z" fill="#FD6FAF"/>
<path d="M58.6652 42.3554C55.3757 42.1284 52.094 42.8964 49.247 44.5598C46.4 46.2231 44.1194 48.7047 42.7019 51.6817C41.2844 54.6588 40.7956 57.9935 41.2991 61.2521C41.8025 64.5108 43.2749 67.5425 45.5248 69.9529C47.7747 72.3634 50.6978 74.041 53.9141 74.7676C57.1303 75.4941 60.4908 75.236 63.5583 74.0268C66.6259 72.8176 69.2586 70.7133 71.1139 67.9875C72.9693 65.2617 73.9615 62.0407 73.9614 58.7434C73.951 54.5855 72.3685 50.5853 69.5314 47.5457C66.6943 44.5061 62.8125 42.652 58.6652 42.3554ZM56.5223 57.12L59.3205 58.0473C63.9746 59.5728 63.3682 66.3535 58.7603 67.4086C58.827 68.3535 58.7318 69.4236 57.5366 69.4685C56.3429 69.4222 56.2395 68.3617 56.3129 67.4086C55.2279 67.1387 54.264 66.5141 53.5743 65.634C52.8846 64.7539 52.5086 63.6687 52.5059 62.5505C52.5059 62.2249 52.6352 61.9126 52.8655 61.6823C53.0957 61.4521 53.408 61.3227 53.7337 61.3227C54.0593 61.3227 54.3716 61.4521 54.6018 61.6823C54.8321 61.9126 54.9614 62.2249 54.9614 62.5505C54.9636 63.2305 55.2348 63.8821 55.7158 64.3628C56.1968 64.8435 56.8484 65.1144 57.5285 65.1162C60.1785 65.1896 61.1751 61.267 58.5373 60.3805L55.7405 59.4396C51.0742 57.9195 51.705 51.128 56.3007 50.0783C56.2341 49.1265 56.3279 48.0633 57.5244 48.0184C58.7182 48.0646 58.8215 49.1265 58.7481 50.0783C59.8351 50.3494 60.8002 50.9762 61.4901 51.8589C62.1799 52.7417 62.5548 53.8297 62.5552 54.95C62.5552 55.2756 62.4258 55.5879 62.1955 55.8181C61.9653 56.0484 61.653 56.1778 61.3274 56.1778C61.0018 56.1778 60.6895 56.0484 60.4592 55.8181C60.229 55.5879 60.0996 55.2756 60.0996 54.95C60.0996 54.2648 59.8274 53.6077 59.343 53.1233C58.8585 52.6388 58.2014 52.3666 57.5162 52.3666C54.888 52.3027 53.8832 56.224 56.5223 57.12Z" fill="#FD6FAF"/>
<path d="M81.5211 67.9254C81.3375 67.7931 81.1212 67.7135 80.8956 67.6954C80.67 67.6773 80.4437 67.7212 80.2413 67.8225C80.0389 67.9237 79.8681 68.0785 79.7474 68.2699C79.6266 68.4613 79.5606 68.6821 79.5564 68.9084V72.2926H71.5738C71.2493 72.2926 70.938 72.4215 70.7085 72.651C70.479 72.8805 70.3501 73.1918 70.3501 73.5163V78.1283C70.3519 78.4523 70.4814 78.7625 70.7105 78.9916C70.9396 79.2207 71.2498 79.3502 71.5738 79.352H79.555V82.7226C79.5568 82.9499 79.6214 83.1723 79.7417 83.3652C79.8619 83.5581 80.0331 83.714 80.2364 83.8157C80.4397 83.9174 80.6671 83.961 80.8936 83.9415C81.12 83.9221 81.3367 83.8405 81.5197 83.7056L90.7437 76.8013C90.8939 76.6851 91.0154 76.5362 91.099 76.3657C91.1827 76.1953 91.2261 76.008 91.2261 75.8182C91.2261 75.6284 91.1827 75.4411 91.099 75.2707C91.0154 75.1003 90.8939 74.9513 90.7437 74.8352L81.5211 67.9254Z" fill="#FD6FAF"/>
<path d="M97.8272 57.8291L88.6155 50.9247C88.4335 50.7862 88.2164 50.7015 87.9888 50.6802C87.7611 50.6588 87.5321 50.7016 87.3275 50.8038C87.123 50.906 86.9512 51.0635 86.8315 51.2584C86.7119 51.4532 86.6493 51.6777 86.6508 51.9064V55.277H78.6546C78.3314 55.2812 78.0226 55.4115 77.794 55.6401C77.5654 55.8686 77.4351 56.1775 77.4309 56.5007V61.1127C77.4334 61.4364 77.5631 61.7462 77.7921 61.9752C78.021 62.2041 78.3308 62.3339 78.6546 62.3364H86.6508V65.7192C86.6536 65.9461 86.7187 66.1678 86.8392 66.3601C86.9596 66.5524 87.1307 66.7079 87.3336 66.8094C87.5365 66.9109 87.7635 66.9546 87.9896 66.9357C88.2157 66.9168 88.4323 66.8361 88.6155 66.7022L97.8272 59.7843C97.9805 59.6704 98.105 59.5223 98.1908 59.3517C98.2766 59.1811 98.3213 58.9928 98.3213 58.8019C98.3213 58.611 98.2766 58.4227 98.1908 58.2521C98.105 58.0815 97.9805 57.9334 97.8272 57.8196V57.8291Z" fill="#FD6FAF"/>
<path d="M71.5738 45.3305H79.5551V48.7147C79.5586 48.9413 79.6242 49.1626 79.7448 49.3544C79.8655 49.5462 80.0365 49.7012 80.2392 49.8025C80.4419 49.9037 80.6685 49.9474 80.8943 49.9287C81.1201 49.91 81.3365 49.8297 81.5198 49.6964L90.7437 42.7784C90.8956 42.6636 91.0188 42.5153 91.104 42.345C91.1891 42.1747 91.2338 41.9871 91.2346 41.7968C91.2322 41.6065 91.1868 41.4193 91.1018 41.249C91.0168 41.0788 90.8944 40.93 90.7437 40.8137L81.5198 33.9094C81.3369 33.7746 81.1203 33.693 80.8939 33.6735C80.6676 33.654 80.4403 33.6974 80.237 33.799C80.0338 33.9005 79.8626 34.0562 79.7422 34.249C79.6219 34.4417 79.5571 34.6639 79.5551 34.891V38.2752H71.5738C71.2493 38.2752 70.938 38.4042 70.7085 38.6337C70.4791 38.8631 70.3501 39.1744 70.3501 39.4989V44.0973C70.3489 44.2588 70.3796 44.419 70.4405 44.5685C70.5015 44.7181 70.5914 44.8541 70.7052 44.9688C70.8189 45.0834 70.9542 45.1744 71.1033 45.2365C71.2524 45.2986 71.4123 45.3305 71.5738 45.3305Z" fill="#FD6FAF"/>
</svg>
