<svg width="121" height="121" viewBox="0 0 121 121" fill="none" xmlns="http://www.w3.org/2000/svg">
<circle cx="60.2495" cy="60.1523" r="60" fill="#3095F9" fill-opacity="0.12"/>
<path d="M66.4035 55.1357H54.3442C53.2607 55.1357 52.3823 56.0142 52.3823 57.0977V90.3521C52.3823 90.7133 52.6752 91.0061 53.0363 91.0061H67.7114C68.0725 91.0061 68.3654 90.7133 68.3654 90.3521V57.0977C68.3654 56.0142 67.487 55.1357 66.4035 55.1357Z" fill="#3095F9"/>
<path d="M86.3177 65.7412H74.2598C73.1763 65.7412 72.2979 66.6196 72.2979 67.7031V90.3512C72.2979 90.7123 72.5907 91.0052 72.9518 91.0052H87.6256C87.9868 91.0052 88.2796 90.7123 88.2796 90.3512V67.7031C88.2796 66.6196 87.4012 65.7412 86.3177 65.7412Z" fill="#3095F9"/>
<path d="M46.4959 65.748H34.438C33.3545 65.748 32.4761 66.6265 32.4761 67.71V90.3544C32.4761 90.7156 32.7689 91.0084 33.13 91.0084H47.8039C48.165 91.0084 48.4578 90.7156 48.4578 90.3544V67.71C48.4578 66.6265 47.5794 65.748 46.4959 65.748Z" fill="#3095F9"/>
<path d="M68.975 35.0456L64.6433 33.8285C64.3404 33.7434 64.0783 33.5519 63.9051 33.2893L61.4702 29.5959C60.9533 28.8118 59.8031 28.8118 59.2862 29.5959L56.8515 33.2893C56.6783 33.552 56.4162 33.7435 56.1133 33.8285L51.7816 35.0456C50.8722 35.3012 50.5252 36.4068 51.1257 37.1361L53.9148 40.5238C54.1223 40.7759 54.2281 41.0967 54.2111 41.4229L53.9777 45.9273C53.9284 46.8792 54.8812 47.5625 55.7669 47.2104L59.8952 45.5694C60.2054 45.4461 60.5511 45.4461 60.8614 45.5694L64.9896 47.2104C65.8755 47.5625 66.8282 46.8792 66.7789 45.9273L66.5454 41.4229C66.5286 41.0967 66.6343 40.7759 66.8418 40.5238L69.6309 37.1361C70.2314 36.4068 69.8844 35.301 68.975 35.0456Z" fill="#3095F9"/>
<path d="M40.0029 48.0068L44.7013 45.7859C45.6809 45.3229 46.0996 44.1533 45.6366 43.1738C45.1734 42.1941 44.0039 41.7753 43.0245 42.2385L38.3261 44.4594C37.3464 44.9224 36.9278 46.092 37.3908 47.0715C37.8542 48.0518 39.0241 48.4695 40.0029 48.0068Z" fill="#3095F9"/>
<path d="M77.7361 35.9848L82.3389 33.7957C83.3173 33.3303 83.7334 32.1599 83.268 31.1814C82.8025 30.203 81.6322 29.7866 80.6537 30.2522L76.0509 32.4413C75.0725 32.9067 74.6564 34.0772 75.1218 35.0557C75.5875 36.035 76.7587 36.4498 77.7361 35.9848Z" fill="#3095F9"/>
<path d="M38.3261 33.7976L43.0245 36.0185C43.2954 36.1466 43.5806 36.2071 43.8616 36.2071C44.5968 36.2071 45.3016 35.792 45.6366 35.0832C46.0997 34.1037 45.6809 32.9341 44.7013 32.4711L40.0029 30.2502C39.0232 29.7871 37.8538 30.2059 37.3908 31.1855C36.9278 32.165 37.3464 33.3346 38.3261 33.7976Z" fill="#3095F9"/>
<path d="M76.0509 45.8142L80.6537 48.0032C81.6324 48.4687 82.8029 48.0524 83.268 47.074C83.7335 46.0956 83.3175 44.925 82.3389 44.4597L77.7361 42.2707C76.7573 41.8052 75.587 42.2214 75.1218 43.1999C74.6564 44.1784 75.0725 45.349 76.0509 45.8142Z" fill="#3095F9"/>
</svg>
