<svg width="121" height="121" viewBox="0 0 121 121" fill="none" xmlns="http://www.w3.org/2000/svg">
<circle cx="60.2495" cy="60.1523" r="60" fill="white"/>
<path d="M48.3848 81.8103C51.2912 79.9406 53.6918 77.7848 54.9807 75.7352C55.614 74.726 55.9649 73.7743 55.94 72.9312C55.9187 72.1843 55.5753 71.4861 54.8359 70.8916C54.0327 70.2471 52.8 69.7125 51.0614 69.3303C50.3782 70.2333 49.67 71.1426 48.9693 72.0394L48.9269 72.0894L48.9131 72.1068L48.8881 72.1418L48.8457 72.1918L48.8207 72.2267L48.8069 72.2442L48.7682 72.2942L48.7258 72.3479L48.687 72.3979L48.6483 72.4516L48.6346 72.4691L48.6059 72.5003L48.5671 72.554L48.5384 72.5865L48.5247 72.6039L48.486 72.6539L48.4472 72.7076L48.4123 72.7501L48.3948 72.7713V72.7751L48.3773 72.7963L48.3598 72.8175L48.3423 72.8388L48.3286 72.8637H48.3248L48.3111 72.885L48.2936 72.9062L48.2761 72.9274L48.2586 72.9524L48.2412 72.9736L48.2237 72.9949L48.2199 73.0024L48.1874 73.0411L48.1525 73.0836V73.0873L48.135 73.1085L48.1175 73.1298L48.0825 73.176L48.065 73.1972L48.0476 73.2222L48.0301 73.2434L48.0126 73.2684L47.9951 73.2896L47.9776 73.3146H47.9739L47.9564 73.3359V73.3396L47.9389 73.3608L47.9214 73.3858L47.9039 73.4071L47.8864 73.432H47.8827L47.8652 73.457L47.8477 73.4782L47.8302 73.5032L47.8127 73.5282H47.809L47.7915 73.5532L47.774 73.5744V73.5782L47.7528 73.5994V73.6031L47.7353 73.6244V73.6281L47.7178 73.6494L47.7141 73.6531L47.6966 73.6743V73.6781L47.6791 73.6993L47.6754 73.7031L47.6579 73.7243V73.728L47.6366 73.753L47.6192 73.778L47.5979 73.803L47.5767 73.828V73.8317L47.5592 73.8567H47.5555L47.538 73.8817L47.5167 73.9066V73.9104L47.4743 73.9604V73.9641L47.4568 73.9891H47.453L47.4356 74.0178H47.4318L47.4143 74.0428L47.4106 74.0465L47.3931 74.0715H47.3893L47.3681 74.1002L47.3256 74.1564L47.3044 74.1852L47.2832 74.2139L47.2582 74.2426L47.237 74.2714C46.9709 74.6111 46.6462 74.8771 46.2702 75.0607C45.8918 75.2443 45.4809 75.3405 45.0525 75.3405C44.6241 75.3405 44.2131 75.2443 43.8347 75.0607C43.46 74.8771 43.134 74.6111 42.868 74.2714C42.3871 73.6556 42.0224 73.1885 41.6502 72.7176C39.6605 70.1859 37.526 67.4706 36.1159 65.1162C35.4402 66.0892 34.8057 67.0959 34.2037 68.1288C33.3082 69.6688 32.4938 71.2438 31.7432 72.8512C31.6332 73.0848 31.4459 73.2622 31.2261 73.3608C33.9489 79.1349 38.3991 83.9323 43.9121 87.0873C44.4367 86.0007 45.0162 84.984 45.7182 84.1022C46.4513 83.1592 47.3194 82.3736 48.3848 81.8103Z" fill="#83CECE"/>
<path d="M32.3375 54.778C33.2618 54.8704 34.1961 54.8842 35.149 54.8067C35.259 54.4982 35.3826 54.1972 35.5175 53.9C35.6374 53.6377 35.7648 53.3829 35.9034 53.1318C36.2606 52.4798 36.6891 51.8566 37.1924 51.2733C37.2424 51.2134 37.2948 51.1534 37.3485 51.0922L37.3585 51.0822L37.3685 51.0685L37.3935 51.0435L37.4035 51.0298L37.4072 51.026L37.4147 51.0185L37.4285 51.0048L37.4384 50.9948V50.991L37.4634 50.9661L37.4847 50.9411L37.4947 50.9311C38.1142 50.2691 38.7974 49.7171 39.5305 49.2674C40.2524 48.8253 41.0281 48.4743 41.8349 48.2233C42.5781 47.2953 43.4848 46.3498 44.6427 45.4405C45.8992 44.4488 47.4641 43.4971 49.4613 42.6328C53.3382 40.9579 56.1422 39.163 58.5602 37.0323C60.8934 34.9789 62.8793 32.5996 65.1237 29.7069C63.2315 29.3397 61.278 29.1523 59.2772 29.1523C44.238 29.1523 31.6968 39.865 28.8716 54.0773C28.9103 54.0811 28.9465 54.0911 28.9815 54.1023C30.0856 54.427 31.2047 54.6643 32.3375 54.778Z" fill="#83CECE"/>
<path d="M76.8691 76.3058C76.2596 73.8165 75.775 71.2786 75.4565 68.6756C75.1517 66.2189 75.0143 65.4083 74.9531 65.4145C74.762 65.4395 74.135 66.3675 73.498 67.3092C72.6837 68.517 71.8594 69.741 70.8676 70.1132C69.2315 70.7227 65.136 68.8068 62.2533 66.1976C61.3328 65.3658 60.5222 64.4628 59.9277 63.5535C59.2832 62.5618 58.8873 61.5426 58.866 60.5509C58.8373 59.1558 59.5068 57.913 61.1704 57.0063C61.4752 56.8402 61.7899 56.7377 62.1447 56.6203C63.1001 56.3056 64.4815 55.8484 64.4603 53.8201C64.4353 51.3695 66.0215 49.7808 68.2622 48.658C69.9297 47.8261 71.9268 47.2666 73.839 46.7957C73.227 45.1108 72.9997 43.2948 73.1521 41.5175C73.3681 39.0532 74.3236 36.6489 76.016 34.7591C76.1509 34.6105 76.2883 34.4656 76.4269 34.327C73.6579 32.486 70.5779 31.0771 67.278 30.1953C67.2431 30.334 67.1819 30.4638 67.0907 30.585C64.6339 33.7612 62.4981 36.3554 59.9464 38.6036C57.3797 40.8655 54.4021 42.7702 50.2879 44.5475C48.4894 45.3269 47.0768 46.19 45.9402 47.0855C45.6641 47.3016 45.4056 47.5176 45.1646 47.7375C47.6251 47.7624 50.0781 48.6293 51.9766 50.3291C52.2426 50.5664 52.4974 50.8212 52.741 51.0935C54.4196 52.967 55.3851 55.3813 55.6012 57.8668C55.821 60.3486 55.2927 62.9153 53.98 65.1073C53.5191 65.8754 52.982 66.6823 52.3975 67.5116C54.0262 67.9537 55.2577 68.552 56.147 69.2639C57.4072 70.2806 57.9917 71.5121 58.0305 72.8785C58.0654 74.1562 57.6021 75.5014 56.7527 76.8541C55.2902 79.1735 52.6348 81.5703 49.4561 83.6087C49.4311 83.6224 49.4061 83.6374 49.3812 83.6511C48.588 84.0683 47.9223 84.6703 47.349 85.396C46.737 86.1641 46.2237 87.0634 45.7628 88.0301L45.7491 88.0551C49.8383 90.0372 54.4271 91.1526 59.277 91.1526C66.8671 91.1526 73.8178 88.4223 79.2059 83.8947C79.121 83.796 79.0498 83.6786 79.0036 83.5437C78.2043 81.1943 77.4786 78.7875 76.8691 76.3058Z" fill="#83CECE"/>
<path d="M35.0979 62.9292C34.5383 61.3043 34.3335 59.5619 34.4821 57.8558C34.5109 57.5448 34.5496 57.2401 34.5995 56.9316C33.764 56.9665 32.9421 56.9391 32.1315 56.8566C30.9025 56.7367 29.706 56.4882 28.5307 56.1484C28.3646 57.4599 28.2759 58.7976 28.2759 60.154C28.2759 64.0021 28.9766 67.6842 30.258 71.0839C30.9238 69.71 31.6282 68.3686 32.3863 67.0722C33.2107 65.6521 34.1074 64.2719 35.0979 62.9292Z" fill="#83CECE"/>
<path d="M87.8688 55.4109L87.83 55.4571L87.7951 55.5071L87.7738 55.5321L87.7564 55.5571L87.7176 55.6033L87.6827 55.6532H87.6789L87.6439 55.6994L87.6052 55.7494L87.5877 55.7744L87.5702 55.7956L87.5315 55.8456L87.4928 55.8955L87.4578 55.9417L87.4191 55.9917L87.4016 56.0167L87.3804 56.0379L87.3454 56.0879L87.3067 56.1341L87.2717 56.184L87.233 56.2303L87.2155 56.2552L87.1981 56.2765L87.1593 56.3264L87.1206 56.3726L87.1031 56.3976L87.0894 56.4189L87.0719 56.4401L87.0369 56.4863L87.0194 56.5075L87.002 56.5288L86.9845 56.55L86.967 56.575L86.9495 56.5962L86.932 56.6175L86.9145 56.6387L86.897 56.6637L86.8796 56.6849L86.8658 56.7061H86.8621L86.8483 56.7311H86.8446L86.8308 56.7523H86.8271L86.8134 56.7736H86.8096L86.7959 56.7986H86.7921L86.7784 56.8198H86.7746L86.7459 56.8585L86.7422 56.866H86.7284L86.7109 56.8872V56.891L86.6935 56.9122L86.676 56.9334L86.6585 56.9584L86.641 56.9797V56.9834L86.606 57.0259V57.0296L86.5885 57.0509H86.5848L86.5673 57.0758L86.5498 57.0971V57.1008L86.5323 57.122L86.5149 57.147H86.5111L86.4936 57.172L86.4761 57.1932V57.197L86.4586 57.2182L86.4549 57.222L86.4374 57.2432L86.4199 57.2682L86.3987 57.2932L86.3812 57.3181L86.36 57.3431L86.3425 57.3681L86.3213 57.3931L86.3038 57.4181V57.4218L86.2825 57.443V57.4468L86.2651 57.4718H86.2613L86.2438 57.4967L86.2226 57.5217V57.5255L86.2014 57.5505L86.1839 57.5754H86.1801L86.1626 57.6042L86.1414 57.6291L86.1202 57.6579L86.0989 57.6828V57.6866L86.0777 57.7116L86.0352 57.7678L86.014 57.7928V57.7965L85.9928 57.8215H85.989L85.9678 57.8502L85.9466 57.8789L85.9253 57.9077L85.9003 57.9389C85.6381 58.2786 85.3096 58.5409 84.9336 58.7245C84.5552 58.9119 84.148 59.008 83.7158 59.008H83.6984L83.6809 59.0043H83.5785L83.571 59.0005H83.5173L83.4998 58.9968H83.4748C83.4573 58.993 83.4398 58.993 83.4186 58.9893H83.4086L83.3911 58.9855H83.3736L83.3624 58.9818H83.3549L83.3412 58.9781H83.3199L83.3024 58.9743L83.2849 58.9706L83.2675 58.9668H83.25L83.2462 58.9631H83.2325L83.225 58.9593H83.215L83.2075 58.9556H83.1975L83.1875 58.9518L83.1525 58.9443H83.1451L83.1313 58.9406L83.1138 58.9368L83.0963 58.9331H83.0926L83.0789 58.9293L83.0751 58.9256L83.0614 58.9218H83.0576L83.0439 58.9181H83.0364L83.0264 58.9144L83.0189 58.9106H83.0089L83.0014 58.9069L82.9802 58.8994H82.9764L82.9627 58.8956H82.959L82.9452 58.8881H82.9415L82.924 58.8844L82.9065 58.8769L82.8928 58.8731H82.889L82.8753 58.8656H82.8715L82.8578 58.8619L82.8503 58.8582L82.8391 58.8544H82.8316L82.8216 58.8507L82.8078 58.8432L82.7978 58.8394L82.7903 58.8357L82.7804 58.8319H82.7729L82.7591 58.8244H82.7554L82.7416 58.8169L82.7241 58.8094L82.7067 58.8019L82.6929 58.7982L82.6892 58.7945L82.6754 58.7907L82.6717 58.787L82.6579 58.7832L82.6542 58.7795L82.643 58.7757L82.633 58.772L82.6255 58.7682L82.6155 58.7645L82.608 58.7607C82.5755 58.747 82.5405 58.732 82.5093 58.7183C82.1346 58.5347 81.8086 58.2686 81.5388 57.9251C81.058 57.3056 80.6933 56.8423 80.3248 56.3714C78.3352 53.8397 76.1969 51.1206 74.7905 48.77L74.7618 48.7275C72.8246 49.1984 70.7712 49.7405 69.2063 50.5261C67.6488 51.3055 66.5434 52.3346 66.5584 53.8047C66.5934 57.3631 64.3564 58.0988 62.8089 58.6096C62.5329 58.6983 62.2881 58.7795 62.1782 58.8394C61.3039 59.3178 60.9529 59.8948 60.9641 60.5106C60.9741 61.0801 61.2477 61.7321 61.6898 62.4115C62.1856 63.1697 62.8763 63.9341 63.662 64.646C66.0588 66.8168 69.1501 68.5266 70.148 68.1544C70.5015 68.0195 71.1435 67.0741 71.7729 66.1361C72.676 64.7946 73.5678 63.4732 74.7081 63.3321C76.0183 63.1722 77.0487 64.4012 77.5446 68.423C77.8593 70.9722 78.3264 73.4289 78.911 75.812C79.4593 78.049 80.115 80.2522 80.8444 82.4255C86.6685 76.7887 90.2868 68.8938 90.2868 60.1521C90.2868 57.794 90.0208 55.4959 89.5224 53.2876C88.9766 53.9921 88.4208 54.7027 87.8688 55.4109Z" fill="#83CECE"/>
<path d="M38.8998 52.4868C37.5259 54.0231 36.7478 55.999 36.5705 58.0349C36.3869 60.1207 36.8327 62.2515 37.9019 64.0363C39.2221 66.2495 41.3291 68.9261 43.2863 71.4178C43.7497 72.0024 44.2031 72.5794 44.5116 72.9791C44.5865 73.0715 44.664 73.139 44.7414 73.1777C44.8226 73.2164 44.9225 73.2376 45.0424 73.2376C45.1623 73.2376 45.2622 73.2164 45.3434 73.1777C45.4208 73.139 45.4995 73.0715 45.5732 72.9791C45.8817 72.5794 46.3376 72.0024 46.7985 71.4141C48.7569 68.9249 50.859 66.2483 52.1829 64.0363C53.2595 62.2377 53.6917 60.1132 53.5106 58.0498C53.3295 55.9927 52.5439 54.0106 51.1812 52.4881C50.9901 52.2757 50.7915 52.0734 50.5792 51.886C49.0492 50.5159 47.0495 49.8289 45.0449 49.8252C43.0415 49.8252 41.0406 50.5084 39.5043 51.886C39.2958 52.0721 39.0947 52.2745 38.8998 52.4868ZM45.0424 52.6742C46.5724 52.6742 47.9601 53.2937 48.9618 54.2991C49.9672 55.3008 50.5867 56.6884 50.5867 58.2185C50.5867 59.751 49.9672 61.1361 48.9618 62.1416C47.9601 63.1432 46.5724 63.7627 45.0424 63.7627C43.5099 63.7627 42.1247 63.1432 41.1193 62.1416C40.1176 61.1361 39.4944 59.7522 39.4944 58.2185C39.4944 56.6884 40.1176 55.3008 41.1193 54.2991C42.1247 53.2937 43.5086 52.6742 45.0424 52.6742Z" fill="#83CECE"/>
<path d="M45.0442 61.6665C45.9972 61.6665 46.8565 61.2805 47.4797 60.6573C48.1067 60.034 48.4927 59.1697 48.4927 58.218C48.4927 57.265 48.1067 56.4057 47.4797 55.7787C46.8565 55.1555 45.9959 54.7695 45.0442 54.7695C44.0924 54.7695 43.2281 55.1555 42.6049 55.7787C41.9816 56.4057 41.5957 57.2663 41.5957 58.218C41.5957 59.171 41.9816 60.034 42.6049 60.6573C43.2281 61.2805 44.0912 61.6665 45.0442 61.6665Z" fill="#83CECE"/>
<path d="M83.7126 38.4297C82.7597 38.4297 81.9003 38.8156 81.2734 39.4389C80.6501 40.0621 80.2642 40.9264 80.2642 41.8782C80.2642 42.8312 80.6501 43.6905 81.2734 44.3175C81.9003 44.9407 82.7609 45.3266 83.7126 45.3266C84.6656 45.3266 85.5287 44.9407 86.1519 44.3175C86.7752 43.6905 87.1611 42.8299 87.1611 41.8782C87.1611 40.9252 86.7752 40.0621 86.1519 39.4389C85.5287 38.8156 84.6644 38.4297 83.7126 38.4297Z" fill="#83CECE"/>
<path d="M92.1832 41.7053C92.0021 39.6482 91.2128 37.6685 89.8539 36.1472C89.6628 35.9349 89.4604 35.7326 89.2519 35.5452C87.7193 34.1751 85.7222 33.4844 83.7176 33.4844C81.7129 33.4844 79.7095 34.1676 78.1733 35.5452C77.9647 35.7326 77.7623 35.9349 77.5712 36.1472C76.1936 37.6835 75.4192 39.6594 75.2381 41.6953C75.057 43.7774 75.5004 45.9119 76.5695 47.6967C77.8935 49.9062 79.9968 52.5828 81.9577 55.0745C82.4186 55.6628 82.8745 56.2423 83.183 56.6358C83.2504 56.7245 83.3279 56.7919 83.4128 56.8344H83.409L83.4128 56.8381C83.4902 56.8768 83.5939 56.8943 83.7101 56.8943C83.83 56.8943 83.9336 56.8768 84.0111 56.8381C84.0923 56.7994 84.1709 56.7319 84.2409 56.6358C84.5519 56.2398 85.0053 55.6616 85.4661 55.0745C87.4271 52.5815 89.5304 49.9049 90.8543 47.6967C91.9322 45.8981 92.3644 43.7699 92.1832 41.7053ZM87.6344 45.7982C86.629 46.8037 85.2451 47.4232 83.7113 47.4232C82.1813 47.4232 80.7937 46.8037 79.792 45.7982C78.7865 44.7965 78.167 43.4089 78.167 41.8789C78.167 40.3464 78.7865 38.9612 79.792 37.9558C80.7937 36.9541 82.1813 36.3346 83.7113 36.3346C85.2438 36.3346 86.629 36.9541 87.6344 37.9558C88.6361 38.9612 89.2556 40.3451 89.2556 41.8789C89.2556 43.4089 88.6361 44.7965 87.6344 45.7982Z" fill="#83CECE"/>
</svg>
