<svg width="121" height="121" viewBox="0 0 121 121" fill="none" xmlns="http://www.w3.org/2000/svg">
<circle cx="60.2495" cy="60.1523" r="60" fill="white"/>
<path d="M76.11 29.1547C75.7821 29.1452 75.454 29.1645 75.1295 29.2124C71.2023 29.4549 67.5242 31.2184 64.8759 34.1284C62.2276 37.0384 60.8176 40.866 60.9452 44.7986C61.0728 48.7312 62.7279 52.4593 65.5593 55.1916C68.3906 57.9238 72.1753 59.4451 76.11 59.4326C77.3267 59.441 78.5391 59.2858 79.7145 58.9712C83.3079 58.0929 86.4548 55.928 88.56 52.8862C90.6651 49.8444 91.5824 46.1365 91.1385 42.4641C90.6945 38.7916 88.92 35.4091 86.1507 32.9566C83.3813 30.504 79.8092 29.1515 76.11 29.1547ZM79.7145 54.4728C78.5586 54.8908 77.3391 55.1054 76.11 55.1072C73.242 55.1072 70.4916 53.9679 68.4636 51.94C66.4357 49.9121 65.2964 47.1616 65.2964 44.2937C65.2964 41.4257 66.4357 38.6753 68.4636 36.6473C70.4916 34.6194 73.242 33.4801 76.11 33.4801C77.3362 33.4865 78.5534 33.691 79.7145 34.0857C81.823 34.8304 83.6487 36.2106 84.9401 38.0363C86.2315 39.8619 86.9249 42.0431 86.9249 44.2792C86.9249 46.5154 86.2315 48.6966 84.9401 50.5222C83.6487 52.3479 81.823 53.7281 79.7145 54.4728Z" fill="#DB90FF"/>
<path d="M74.6681 49.3404C74.3841 49.3411 74.1027 49.2854 73.8404 49.1765C73.578 49.0676 73.3399 48.9077 73.1398 48.706L70.2562 45.8224C70.0437 45.6244 69.8733 45.3857 69.7551 45.1204C69.6369 44.8551 69.5733 44.5687 69.5682 44.2783C69.5631 43.9879 69.6165 43.6995 69.7253 43.4302C69.834 43.1609 69.9959 42.9163 70.2013 42.7109C70.4067 42.5055 70.6513 42.3436 70.9206 42.2349C71.1899 42.1261 71.4783 42.0727 71.7687 42.0778C72.0591 42.0829 72.3455 42.1465 72.6108 42.2647C72.8761 42.3829 73.1148 42.5533 73.3128 42.7658L74.6681 44.1182L78.907 39.8822C79.317 39.5002 79.8593 39.2922 80.4196 39.3021C80.9798 39.312 81.5144 39.539 81.9107 39.9352C82.3069 40.3314 82.5339 40.866 82.5438 41.4263C82.5537 41.9866 82.3457 42.5289 81.9637 42.9388L76.1964 48.706C75.9964 48.9077 75.7583 49.0676 75.4959 49.1765C75.2336 49.2854 74.9522 49.3411 74.6681 49.3404Z" fill="#DB90FF"/>
<path d="M65.2963 44.2936C65.2971 41.4259 66.4366 38.6759 68.4644 36.6481C70.4922 34.6203 73.2422 33.4808 76.1099 33.48C77.3361 33.4864 78.5533 33.6909 79.7144 34.0856C79.6828 32.8517 79.1979 31.6727 78.3521 30.7738C77.5064 29.8748 76.3591 29.3189 75.1294 29.2123C74.9805 29.1648 74.8241 29.1453 74.6681 29.1546H34.2975C32.961 29.1607 31.681 29.6943 30.736 30.6394C29.7909 31.5844 29.2573 32.8644 29.2512 34.2009V86.1059C29.2573 87.4424 29.7909 88.7224 30.736 89.6675C31.681 90.6125 32.961 91.1461 34.2975 91.1522H74.6681C76.0046 91.1461 77.2846 90.6125 78.2296 89.6675C79.1747 88.7224 79.7083 87.4424 79.7144 86.1059V54.4727C78.5585 54.8907 77.339 55.1054 76.1099 55.1071C73.2422 55.1063 70.4922 53.9668 68.4644 51.939C66.4366 49.9113 65.2971 47.1613 65.2963 44.2936ZM40.0648 46.4563H51.5992C52.1728 46.4563 52.7229 46.6841 53.1285 47.0897C53.534 47.4953 53.7619 48.0454 53.7619 48.619C53.7619 49.1926 53.534 49.7427 53.1285 50.1482C52.7229 50.5538 52.1728 50.7817 51.5992 50.7817H40.0648C39.4912 50.7817 38.9411 50.5538 38.5355 50.1482C38.1299 49.7427 37.902 49.1926 37.902 48.619C37.902 48.0454 38.1299 47.4953 38.5355 47.0897C38.9411 46.6841 39.4912 46.4563 40.0648 46.4563ZM40.0648 55.1071H57.3664C57.94 55.1071 58.4901 55.335 58.8957 55.7405C59.3013 56.1461 59.5291 56.6962 59.5291 57.2698C59.5291 57.8434 59.3013 58.3935 58.8957 58.7991C58.4901 59.2047 57.94 59.4325 57.3664 59.4325H40.0648C39.4912 59.4325 38.9411 59.2047 38.5355 58.7991C38.1299 58.3935 37.902 57.8434 37.902 57.2698C37.902 56.6962 38.1299 56.1461 38.5355 55.7405C38.9411 55.335 39.4912 55.1071 40.0648 55.1071ZM68.9008 82.5014H60.25C59.9661 82.5013 59.6849 82.4452 59.4227 82.3364C59.1605 82.2275 58.9222 82.068 58.7217 81.867L55.0884 78.2336L53.5312 81.3191C53.3557 81.6499 53.1002 81.9314 52.7878 82.1379C52.4755 82.3444 52.1164 82.4694 51.7434 82.5014C51.3664 82.5242 50.99 82.4485 50.6513 82.2816C50.3125 82.1148 50.023 81.8625 49.8114 81.5498L45.832 75.5807L41.8526 81.5498C41.6547 81.8421 41.3884 82.0816 41.0768 82.2475C40.7652 82.4133 40.4177 82.5005 40.0648 82.5014C39.6324 82.5018 39.2101 82.3711 38.8536 82.1265C38.3808 81.8042 38.0547 81.3079 37.9467 80.746C37.8386 80.1841 37.9573 79.6022 38.2769 79.1276L44.0441 70.4767C44.2537 70.2012 44.5241 69.9779 44.8342 69.8242C45.1444 69.6704 45.4858 69.5904 45.832 69.5904C46.1781 69.5904 46.5196 69.6704 46.8297 69.8242C47.1398 69.9779 47.4102 70.2012 47.6198 70.4767L51.3397 76.0421L52.5508 73.591C52.7076 73.289 52.9325 73.0275 53.2078 72.8273C53.483 72.6271 53.8011 72.4937 54.1368 72.4376C54.4748 72.3815 54.8214 72.4072 55.1475 72.5125C55.4736 72.6179 55.7698 72.7999 56.0111 73.0431L61.1439 78.176H68.9008C69.4744 78.176 70.0245 78.4038 70.4301 78.8094C70.8357 79.215 71.0636 79.7651 71.0636 80.3387C71.0636 80.9123 70.8357 81.4624 70.4301 81.8679C70.0245 82.2735 69.4744 82.5014 68.9008 82.5014Z" fill="#DB90FF"/>
</svg>
