<svg width="121" height="121" viewBox="0 0 121 121" fill="none" xmlns="http://www.w3.org/2000/svg">
<circle cx="60.2495" cy="60.1523" r="60" fill="#986EEB" fill-opacity="0.12"/>
<path d="M85.8003 29.1523H62.0659V38.5843C62.6548 38.4336 63.265 38.3555 63.8823 38.3555C67.8876 38.3555 71.1479 41.614 71.1479 45.6211C71.1479 49.6282 67.8876 52.8867 63.8823 52.8867C63.265 52.8867 62.6548 52.8086 62.0659 52.6579V58.3359H70.7115C72.2643 58.3359 73.0781 60.2225 72.0703 61.3604C71.4673 62.0362 71.1479 62.8751 71.1479 63.7852C71.1479 65.7878 72.7763 67.418 74.7808 67.418C76.7852 67.418 78.4136 65.7878 78.4136 63.7852C78.4136 62.8751 78.0942 62.0362 77.4912 61.3604C76.4526 60.1901 77.2855 58.3359 78.85 58.3359H91.2495V34.6016C91.2495 31.5967 88.8051 29.1523 85.8003 29.1523Z" fill="#986EEB"/>
<path d="M63.8823 41.9883C62.9848 41.9883 62.1227 42.3146 61.4557 42.909C60.2986 43.9466 58.4331 43.1254 58.4331 41.5519V29.1523H34.6987C31.6939 29.1523 29.2495 31.5967 29.2495 34.6016V58.3359H38.6832C38.5307 57.7471 38.4526 57.1369 38.4526 56.5195C38.4526 52.5124 41.713 49.2539 45.7183 49.2539C49.7236 49.2539 52.9839 52.5124 52.9839 56.5195C52.9839 57.1369 52.9058 57.7471 52.7533 58.3359H58.4331V49.6903C58.4331 48.1167 60.2986 47.2957 61.4557 48.3334C62.1227 48.9276 62.9848 49.2539 63.8823 49.2539C65.8868 49.2539 67.5151 47.6237 67.5151 45.6211C67.5151 43.6184 65.8868 41.9883 63.8823 41.9883Z" fill="#986EEB"/>
<path d="M56.6167 67.418C57.234 67.418 57.8442 67.4961 58.4331 67.6485V61.9688H49.7875C48.223 61.9688 47.3902 60.1144 48.4287 58.9443C49.0317 58.2685 49.3511 57.4294 49.3511 56.5195C49.3511 54.5169 47.7227 52.8867 45.7183 52.8867C43.7138 52.8867 42.0854 54.5169 42.0854 56.5195C42.0854 57.4296 42.4048 58.2685 43.0078 58.9443C44.0464 60.1143 43.2136 61.9688 41.649 61.9688H29.2495V85.7031C29.2495 88.7079 31.6939 91.1523 34.6987 91.1523H58.4331V81.7187C57.8442 81.8712 57.234 81.9492 56.6167 81.9492C52.6114 81.9492 49.3511 78.6907 49.3511 74.6836C49.3511 70.6765 52.6114 67.418 56.6167 67.418Z" fill="#986EEB"/>
<path d="M81.8158 61.9688C81.9683 62.5576 82.0464 63.1678 82.0464 63.7852C82.0464 67.7923 78.7861 71.0508 74.7808 71.0508C70.7755 71.0508 67.5151 67.7923 67.5151 63.7852C67.5151 63.1641 67.6211 62.5599 67.7734 61.9688H62.0659V70.6144C62.0659 72.178 60.2129 73.011 59.0433 71.9732C58.3621 71.3701 57.5249 71.0508 56.6167 71.0508C54.6122 71.0508 52.9839 72.6809 52.9839 74.6836C52.9839 76.6862 54.6122 78.3164 56.6167 78.3164C57.5249 78.3164 58.3621 77.9971 59.0433 77.394C60.2154 76.3578 62.0659 77.1885 62.0659 78.7528V91.1523H85.8003C88.8051 91.1523 91.2495 88.7079 91.2495 85.7031V61.9688H81.8158Z" fill="#986EEB"/>
</svg>
