<svg width="121" height="121" viewBox="0 0 121 121" fill="none" xmlns="http://www.w3.org/2000/svg">
<circle cx="60.2495" cy="60.1523" r="60" fill="white"/>
<path d="M86.2432 62.625H80.5908C81.167 64.2024 81.4817 65.9047 81.4817 67.679V89.0418C81.4817 89.7816 81.353 90.4916 81.1187 91.152H90.4634C93.9541 91.152 96.7939 88.3121 96.7939 84.8215V73.1757C96.794 67.3581 92.0609 62.625 86.2432 62.625Z" fill="#FFA07B"/>
<path d="M39.0174 67.679C39.0174 65.9046 39.3321 64.2024 39.9083 62.625H34.2559C28.4382 62.625 23.7051 67.3581 23.7051 73.1758V84.8216C23.7051 88.3122 26.5448 91.1521 30.0356 91.1521H39.3804C39.1461 90.4915 39.0174 89.7816 39.0174 89.0418V67.679Z" fill="#FFA07B"/>
<path d="M66.7108 57.1289H53.7886C47.9709 57.1289 43.2378 61.862 43.2378 67.6797V89.0425C43.2378 90.2078 44.1825 91.1527 45.348 91.1527H75.1514C76.3169 91.1527 77.2616 90.208 77.2616 89.0425V67.6797C77.2616 61.862 72.5285 57.1289 66.7108 57.1289Z" fill="#FFA07B"/>
<path d="M60.2497 29.1523C53.2531 29.1523 47.561 34.8444 47.561 41.8411C47.561 46.5869 50.1804 50.7317 54.0487 52.9078C55.8835 53.9399 57.9988 54.5298 60.2497 54.5298C62.5006 54.5298 64.6159 53.9399 66.4507 52.9078C70.3191 50.7317 72.9383 46.5868 72.9383 41.8411C72.9383 34.8446 67.2463 29.1523 60.2497 29.1523Z" fill="#FFA07B"/>
<path d="M37.9684 40.9795C32.7359 40.9795 28.479 45.2364 28.479 50.4689C28.479 55.7015 32.7359 59.9584 37.9684 59.9584C39.2957 59.9584 40.5597 59.6834 41.7078 59.1892C43.6929 58.3346 45.3297 56.8217 46.3426 54.9266C47.0535 53.5966 47.4579 52.0793 47.4579 50.4689C47.4579 45.2365 43.201 40.9795 37.9684 40.9795Z" fill="#FFA07B"/>
<path d="M82.5305 40.9795C77.2979 40.9795 73.041 45.2364 73.041 50.4689C73.041 52.0795 73.4454 53.5968 74.1563 54.9266C75.1692 56.8218 76.806 58.3347 78.7911 59.1892C79.9392 59.6834 81.2031 59.9584 82.5305 59.9584C87.763 59.9584 92.0199 55.7015 92.0199 50.4689C92.0199 45.2364 87.763 40.9795 82.5305 40.9795Z" fill="#FFA07B"/>
</svg>
